<mxfile host="65bd71144e">
    <diagram name="Page-1" id="c4acf3e9-155e-7222-9cf6-157b1a14988f">
        <mxGraphModel dx="665" dy="1551" grid="1" gridSize="10" guides="1" tooltips="1" connect="1" arrows="1" fold="1" page="1" pageScale="1" pageWidth="850" pageHeight="1100" background="none" math="0" shadow="0">
            <root>
                <mxCell id="0"/>
                <mxCell id="1" parent="0"/>
                <mxCell id="5d2195bd80daf111-10" value="&lt;p style=&quot;margin: 0px ; margin-top: 4px ; text-align: center&quot;&gt;&lt;i&gt;Log&lt;/i&gt;&lt;/p&gt;&lt;hr size=&quot;1&quot;&gt;&lt;p style=&quot;margin: 0px ; margin-left: 4px&quot;&gt;+ location&lt;br&gt;+ temperature&lt;/p&gt;&lt;p style=&quot;margin: 0px ; margin-left: 4px&quot;&gt;+ humidity&lt;/p&gt;&lt;p style=&quot;margin: 0px ; margin-left: 4px&quot;&gt;+ timestamp&lt;/p&gt;&lt;p style=&quot;margin: 0px ; margin-left: 4px&quot;&gt;+ status: stopped, in_movement&lt;/p&gt;&lt;hr size=&quot;1&quot;&gt;&lt;p style=&quot;margin: 0px ; margin-left: 4px&quot;&gt;&lt;br&gt;&lt;/p&gt;" style="verticalAlign=top;align=left;overflow=fill;fontSize=12;fontFamily=Helvetica;html=1;rounded=0;shadow=0;comic=0;labelBackgroundColor=none;strokeWidth=1" parent="1" vertex="1">
                    <mxGeometry x="1260" y="-601" width="190" height="160" as="geometry"/>
                </mxCell>
                <mxCell id="5d2195bd80daf111-12" value="&lt;p style=&quot;margin: 0px ; margin-top: 4px ; text-align: center&quot;&gt;&lt;i&gt;&amp;lt;&amp;lt; content Manager &amp;gt;&amp;gt;&lt;/i&gt;&lt;/p&gt;&lt;hr size=&quot;1&quot;&gt;&lt;p style=&quot;margin: 0px ; margin-left: 4px&quot;&gt;+ field1: Type&lt;br&gt;+ field2: Type&lt;/p&gt;&lt;hr size=&quot;1&quot;&gt;&lt;p style=&quot;margin: 0px ; margin-left: 4px&quot;&gt;+ save_client&lt;br&gt;+ delete_client&lt;/p&gt;&lt;p style=&quot;margin: 0px ; margin-left: 4px&quot;&gt;+ update_client&lt;/p&gt;" style="verticalAlign=top;align=left;overflow=fill;fontSize=12;fontFamily=Helvetica;html=1;rounded=0;shadow=0;comic=0;labelBackgroundColor=none;strokeWidth=1" parent="1" vertex="1">
                    <mxGeometry x="350" y="-560" width="190" height="140" as="geometry"/>
                </mxCell>
                <mxCell id="5d2195bd80daf111-15" value="&lt;p style=&quot;margin: 0px ; margin-top: 4px ; text-align: center&quot;&gt;&lt;i&gt;Driver&lt;/i&gt;&lt;/p&gt;&lt;hr size=&quot;1&quot;&gt;&lt;p style=&quot;margin: 0px ; margin-left: 4px&quot;&gt;+ license_number&lt;/p&gt;&lt;p style=&quot;margin: 0px ; margin-left: 4px&quot;&gt;+ license_country&lt;br&gt;+ field2: Type&lt;/p&gt;&lt;hr size=&quot;1&quot;&gt;&lt;p style=&quot;margin: 0px ; margin-left: 4px&quot;&gt;+ method1(Type): Type&lt;br&gt;+ method2(Type, Type): Type&lt;/p&gt;" style="verticalAlign=top;align=left;overflow=fill;fontSize=12;fontFamily=Helvetica;html=1;rounded=0;shadow=0;comic=0;labelBackgroundColor=none;strokeWidth=1" parent="1" vertex="1">
                    <mxGeometry x="680" y="-830" width="190" height="140" as="geometry"/>
                </mxCell>
                <mxCell id="5d2195bd80daf111-18" value="&lt;p style=&quot;margin: 0px ; margin-top: 4px ; text-align: center&quot;&gt;&lt;i&gt;Client&lt;/i&gt;&lt;/p&gt;&lt;hr size=&quot;1&quot;&gt;&lt;p style=&quot;margin: 0px ; margin-left: 4px&quot;&gt;&lt;span&gt;+ contract_number&lt;/span&gt;&lt;br&gt;&lt;/p&gt;&lt;p style=&quot;margin: 0px ; margin-left: 4px&quot;&gt;+ nit&lt;/p&gt;&lt;hr size=&quot;1&quot;&gt;&lt;p style=&quot;margin: 0px ; margin-left: 4px&quot;&gt;+ method1(Type): Type&lt;br&gt;+ method2(Type, Type): Type&lt;/p&gt;" style="verticalAlign=top;align=left;overflow=fill;fontSize=12;fontFamily=Helvetica;html=1;rounded=0;shadow=0;comic=0;labelBackgroundColor=none;strokeWidth=1" parent="1" vertex="1">
                    <mxGeometry x="350" y="-830" width="190" height="140" as="geometry"/>
                </mxCell>
                <mxCell id="5d2195bd80daf111-20" value="&lt;p style=&quot;margin: 0px ; margin-top: 4px ; text-align: center&quot;&gt;&lt;i&gt;Truck&lt;/i&gt;&lt;/p&gt;&lt;hr size=&quot;1&quot;&gt;&lt;p style=&quot;margin: 0px 0px 0px 4px&quot;&gt;+ license_plate: Type&lt;br&gt;+ typo: Type&lt;/p&gt;&lt;p style=&quot;margin: 0px 0px 0px 4px&quot;&gt;+ model&lt;/p&gt;&lt;p style=&quot;margin: 0px 0px 0px 4px&quot;&gt;+ brand_manufactor&lt;/p&gt;&lt;hr size=&quot;1&quot;&gt;&lt;p style=&quot;margin: 0px ; margin-left: 4px&quot;&gt;+ method1(Type): Type&lt;br&gt;+ method2(Type, Type): Type&lt;/p&gt;" style="verticalAlign=top;align=left;overflow=fill;fontSize=12;fontFamily=Helvetica;html=1;rounded=0;shadow=0;comic=0;labelBackgroundColor=none;strokeWidth=1" parent="1" vertex="1">
                    <mxGeometry x="1040" y="-900" width="190" height="140" as="geometry"/>
                </mxCell>
                <mxCell id="QEIDY006NLrW6bMYApJ5-1" value="&lt;p style=&quot;margin: 0px ; margin-top: 4px ; text-align: center&quot;&gt;&lt;i&gt;Package-Product&lt;/i&gt;&lt;/p&gt;&lt;hr size=&quot;1&quot;&gt;&lt;p style=&quot;margin: 0px ; margin-left: 4px&quot;&gt;+ field1: Type&lt;br&gt;+ field2: Type&lt;/p&gt;&lt;p style=&quot;margin: 0px 0px 0px 4px&quot;&gt;* temperature_range&lt;/p&gt;&lt;p style=&quot;margin: 0px 0px 0px 4px&quot;&gt;+ humidity_range&lt;/p&gt;&lt;hr size=&quot;1&quot;&gt;&lt;p style=&quot;margin: 0px ; margin-left: 4px&quot;&gt;+ method1(Type): Type&lt;br&gt;+ method2(Type, Type): Type&lt;/p&gt;" style="verticalAlign=top;align=left;overflow=fill;fontSize=12;fontFamily=Helvetica;html=1;rounded=0;shadow=0;comic=0;labelBackgroundColor=none;strokeWidth=1" parent="1" vertex="1">
                    <mxGeometry x="860" y="-310" width="190" height="140" as="geometry"/>
                </mxCell>
                <mxCell id="QEIDY006NLrW6bMYApJ5-21" style="edgeStyle=orthogonalEdgeStyle;rounded=0;orthogonalLoop=1;jettySize=auto;html=1;startArrow=diamondThin;startFill=1;endArrow=none;endFill=0;exitX=0.5;exitY=1;exitDx=0;exitDy=0;" parent="1" source="QEIDY006NLrW6bMYApJ5-2" edge="1">
                    <mxGeometry relative="1" as="geometry">
                        <Array as="points">
                            <mxPoint x="955" y="-310"/>
                        </Array>
                        <mxPoint x="955" y="-310" as="targetPoint"/>
                    </mxGeometry>
                </mxCell>
                <mxCell id="QEIDY006NLrW6bMYApJ5-2" value="&lt;p style=&quot;margin: 0px ; margin-top: 4px ; text-align: center&quot;&gt;&lt;i&gt;Shippping-Route&lt;/i&gt;&lt;/p&gt;&lt;hr size=&quot;1&quot;&gt;&lt;p style=&quot;margin: 0px ; margin-left: 4px&quot;&gt;+ start_place&lt;br&gt;+ end_place&lt;/p&gt;&lt;p style=&quot;margin: 0px ; margin-left: 4px&quot;&gt;+ truck(Truck)&lt;/p&gt;&lt;p style=&quot;margin: 0px ; margin-left: 4px&quot;&gt;+ driver(Truck)&lt;/p&gt;&lt;p style=&quot;margin: 0px ; margin-left: 4px&quot;&gt;+ client(Client)&lt;/p&gt;&lt;p style=&quot;margin: 0px ; margin-left: 4px&quot;&gt;+ pacakges(list of Pacakages)&lt;/p&gt;&lt;p style=&quot;margin: 0px ; margin-left: 4px&quot;&gt;+ status&lt;/p&gt;&lt;hr size=&quot;1&quot;&gt;&lt;p style=&quot;margin: 0px ; margin-left: 4px&quot;&gt;+ get_truck()&lt;/p&gt;&lt;p style=&quot;margin: 0px ; margin-left: 4px&quot;&gt;+ get_current_location()&lt;/p&gt;&lt;p style=&quot;margin: 0px ; margin-left: 4px&quot;&gt;+ get_current_status()&lt;/p&gt;" style="verticalAlign=top;align=left;overflow=fill;fontSize=12;fontFamily=Helvetica;html=1;rounded=0;shadow=0;comic=0;labelBackgroundColor=none;strokeWidth=1" parent="1" vertex="1">
                    <mxGeometry x="860" y="-601" width="200" height="201" as="geometry"/>
                </mxCell>
                <mxCell id="z-6WkL9V1n6z_OoucZy9-11" style="edgeStyle=orthogonalEdgeStyle;rounded=0;orthogonalLoop=1;jettySize=auto;html=1;exitX=0.5;exitY=1;exitDx=0;exitDy=0;" parent="1" source="QEIDY006NLrW6bMYApJ5-8" target="5d2195bd80daf111-10" edge="1">
                    <mxGeometry relative="1" as="geometry">
                        <Array as="points">
                            <mxPoint x="655" y="-120"/>
                            <mxPoint x="1355" y="-120"/>
                        </Array>
                    </mxGeometry>
                </mxCell>
                <mxCell id="QEIDY006NLrW6bMYApJ5-8" value="&lt;p style=&quot;margin: 0px ; margin-top: 4px ; text-align: center&quot;&gt;&lt;i&gt;logger Manager&lt;/i&gt;&lt;/p&gt;&lt;hr size=&quot;1&quot;&gt;&lt;p style=&quot;margin: 0px ; margin-left: 4px&quot;&gt;+ field1: Type&lt;br&gt;+ field2: Type&lt;/p&gt;&lt;hr size=&quot;1&quot;&gt;&lt;p style=&quot;margin: 0px ; margin-left: 4px&quot;&gt;+ save_client&lt;br&gt;+ delete_client&lt;/p&gt;&lt;p style=&quot;margin: 0px ; margin-left: 4px&quot;&gt;+ update_client&lt;/p&gt;" style="verticalAlign=top;align=left;overflow=fill;fontSize=12;fontFamily=Helvetica;html=1;rounded=0;shadow=0;comic=0;labelBackgroundColor=none;strokeWidth=1" parent="1" vertex="1">
                    <mxGeometry x="560" y="-350" width="190" height="140" as="geometry"/>
                </mxCell>
                <mxCell id="QEIDY006NLrW6bMYApJ5-10" value="" style="endArrow=block;html=1;entryX=0.5;entryY=1;entryDx=0;entryDy=0;endFill=0;exitX=0.5;exitY=0;exitDx=0;exitDy=0;" parent="1" source="QEIDY006NLrW6bMYApJ5-8" target="5d2195bd80daf111-12" edge="1">
                    <mxGeometry width="50" height="50" relative="1" as="geometry">
                        <mxPoint x="410" y="-340" as="sourcePoint"/>
                        <mxPoint x="590" y="-330" as="targetPoint"/>
                        <Array as="points">
                            <mxPoint x="445" y="-360"/>
                        </Array>
                    </mxGeometry>
                </mxCell>
                <mxCell id="QEIDY006NLrW6bMYApJ5-13" value="&lt;p style=&quot;margin: 0px ; margin-top: 4px ; text-align: center&quot;&gt;&lt;i&gt;&amp;lt;&amp;lt; Persona &amp;gt;&amp;gt;&lt;/i&gt;&lt;/p&gt;&lt;hr size=&quot;1&quot;&gt;&lt;p style=&quot;margin: 0px ; margin-left: 4px&quot;&gt;+ ci: string&lt;/p&gt;&lt;p style=&quot;margin: 0px ; margin-left: 4px&quot;&gt;+ name: Type&lt;br&gt;+ email: Type&lt;/p&gt;&lt;p style=&quot;margin: 0px ; margin-left: 4px&quot;&gt;+ cellphone:&lt;/p&gt;&lt;p style=&quot;margin: 0px ; margin-left: 4px&quot;&gt;+ address:&lt;/p&gt;&lt;hr size=&quot;1&quot;&gt;&lt;p style=&quot;margin: 0px ; margin-left: 4px&quot;&gt;+ to_dict()&lt;/p&gt;" style="verticalAlign=top;align=left;overflow=fill;fontSize=12;fontFamily=Helvetica;html=1;rounded=0;shadow=0;comic=0;labelBackgroundColor=none;strokeWidth=1" parent="1" vertex="1">
                    <mxGeometry x="510" y="-1040" width="190" height="140" as="geometry"/>
                </mxCell>
                <mxCell id="QEIDY006NLrW6bMYApJ5-14" value="" style="endArrow=block;html=1;entryX=0.5;entryY=1;entryDx=0;entryDy=0;exitX=0.75;exitY=0;exitDx=0;exitDy=0;endFill=0;" parent="1" source="5d2195bd80daf111-18" target="QEIDY006NLrW6bMYApJ5-13" edge="1">
                    <mxGeometry width="50" height="50" relative="1" as="geometry">
                        <mxPoint x="660" y="-570" as="sourcePoint"/>
                        <mxPoint x="710" y="-620" as="targetPoint"/>
                        <Array as="points">
                            <mxPoint x="493" y="-860"/>
                            <mxPoint x="605" y="-860"/>
                        </Array>
                    </mxGeometry>
                </mxCell>
                <mxCell id="QEIDY006NLrW6bMYApJ5-15" value="" style="endArrow=block;html=1;endFill=0;entryX=0.5;entryY=1;entryDx=0;entryDy=0;exitX=0.5;exitY=0;exitDx=0;exitDy=0;" parent="1" source="5d2195bd80daf111-15" target="QEIDY006NLrW6bMYApJ5-13" edge="1">
                    <mxGeometry width="50" height="50" relative="1" as="geometry">
                        <mxPoint x="736" y="-860" as="sourcePoint"/>
                        <mxPoint x="560" y="-859" as="targetPoint"/>
                        <Array as="points">
                            <mxPoint x="775" y="-860"/>
                            <mxPoint x="605" y="-860"/>
                        </Array>
                    </mxGeometry>
                </mxCell>
                <mxCell id="QEIDY006NLrW6bMYApJ5-19" value="" style="endArrow=diamondThin;html=1;entryX=0.996;entryY=0.452;entryDx=0;entryDy=0;entryPerimeter=0;exitX=0;exitY=0.25;exitDx=0;exitDy=0;startArrow=none;startFill=0;endFill=0;" parent="1" source="QEIDY006NLrW6bMYApJ5-2" target="5d2195bd80daf111-18" edge="1">
                    <mxGeometry width="50" height="50" relative="1" as="geometry">
                        <mxPoint x="770" y="-490" as="sourcePoint"/>
                        <mxPoint x="820" y="-540" as="targetPoint"/>
                        <Array as="points">
                            <mxPoint x="590" y="-555"/>
                            <mxPoint x="590" y="-767"/>
                        </Array>
                    </mxGeometry>
                </mxCell>
                <mxCell id="QEIDY006NLrW6bMYApJ5-24" value="" style="endArrow=none;html=1;exitX=1;exitY=0.5;exitDx=0;exitDy=0;entryX=0.5;entryY=0;entryDx=0;entryDy=0;endFill=0;startArrow=diamondThin;startFill=0;" parent="1" source="5d2195bd80daf111-15" target="QEIDY006NLrW6bMYApJ5-2" edge="1">
                    <mxGeometry width="50" height="50" relative="1" as="geometry">
                        <mxPoint x="740" y="-560" as="sourcePoint"/>
                        <mxPoint x="1117" y="-792" as="targetPoint"/>
                        <Array as="points">
                            <mxPoint x="955" y="-760"/>
                        </Array>
                    </mxGeometry>
                </mxCell>
                <mxCell id="QEIDY006NLrW6bMYApJ5-25" value="" style="endArrow=diamondThin;html=1;exitX=1;exitY=0.25;exitDx=0;exitDy=0;entryX=0.25;entryY=1;entryDx=0;entryDy=0;endFill=0;startArrow=none;startFill=0;" parent="1" source="QEIDY006NLrW6bMYApJ5-2" target="z-6WkL9V1n6z_OoucZy9-12" edge="1">
                    <mxGeometry width="50" height="50" relative="1" as="geometry">
                        <mxPoint x="930" y="-790" as="sourcePoint"/>
                        <mxPoint x="1146" y="-780" as="targetPoint"/>
                        <Array as="points">
                            <mxPoint x="1195" y="-555"/>
                        </Array>
                    </mxGeometry>
                </mxCell>
                <mxCell id="QEIDY006NLrW6bMYApJ5-26" value="" style="endArrow=none;html=1;exitX=1.011;exitY=0.45;exitDx=0;exitDy=0;exitPerimeter=0;entryX=0.011;entryY=0.463;entryDx=0;entryDy=0;entryPerimeter=0;startArrow=diamond;startFill=1;" parent="1" source="QEIDY006NLrW6bMYApJ5-2" target="5d2195bd80daf111-10" edge="1">
                    <mxGeometry width="50" height="50" relative="1" as="geometry">
                        <mxPoint x="910" y="-460" as="sourcePoint"/>
                        <mxPoint x="1290" y="-620" as="targetPoint"/>
                        <Array as="points"/>
                    </mxGeometry>
                </mxCell>
                <mxCell id="z-6WkL9V1n6z_OoucZy9-5" value="" style="endArrow=blockThin;html=1;exitX=0.5;exitY=0;exitDx=0;exitDy=0;entryX=0;entryY=0.5;entryDx=0;entryDy=0;endFill=1;" parent="1" source="5d2195bd80daf111-12" target="QEIDY006NLrW6bMYApJ5-13" edge="1">
                    <mxGeometry width="50" height="50" relative="1" as="geometry">
                        <mxPoint x="455" y="-550.0000000000002" as="sourcePoint"/>
                        <mxPoint x="455" y="-677" as="targetPoint"/>
                        <Array as="points">
                            <mxPoint x="445" y="-600"/>
                            <mxPoint x="310" y="-600"/>
                            <mxPoint x="310" y="-970"/>
                        </Array>
                    </mxGeometry>
                </mxCell>
                <mxCell id="z-6WkL9V1n6z_OoucZy9-6" value="" style="endArrow=blockThin;html=1;exitX=0;exitY=0.25;exitDx=0;exitDy=0;entryX=0.5;entryY=0;entryDx=0;entryDy=0;endFill=1;" parent="1" source="5d2195bd80daf111-12" target="z-6WkL9V1n6z_OoucZy9-12" edge="1">
                    <mxGeometry width="50" height="50" relative="1" as="geometry">
                        <mxPoint x="550" y="-515.0000000000002" as="sourcePoint"/>
                        <mxPoint x="785" y="-680.0000000000002" as="targetPoint"/>
                        <Array as="points">
                            <mxPoint x="270" y="-525"/>
                            <mxPoint x="270" y="-1060"/>
                            <mxPoint x="960" y="-1060"/>
                            <mxPoint x="1148" y="-1060"/>
                            <mxPoint x="1195" y="-1060"/>
                            <mxPoint x="1495" y="-1060"/>
                        </Array>
                    </mxGeometry>
                </mxCell>
                <mxCell id="z-6WkL9V1n6z_OoucZy9-7" value="" style="endArrow=blockThin;html=1;exitX=1;exitY=0.5;exitDx=0;exitDy=0;entryX=0;entryY=0.5;entryDx=0;entryDy=0;endFill=1;" parent="1" source="5d2195bd80daf111-12" target="QEIDY006NLrW6bMYApJ5-2" edge="1">
                    <mxGeometry width="50" height="50" relative="1" as="geometry">
                        <mxPoint x="550" y="-515.0000000000002" as="sourcePoint"/>
                        <mxPoint x="1370" y="-320" as="targetPoint"/>
                        <Array as="points">
                            <mxPoint x="680" y="-490"/>
                            <mxPoint x="810" y="-490"/>
                            <mxPoint x="810" y="-520"/>
                        </Array>
                    </mxGeometry>
                </mxCell>
                <mxCell id="z-6WkL9V1n6z_OoucZy9-8" value="" style="endArrow=blockThin;html=1;entryX=0;entryY=0.5;entryDx=0;entryDy=0;exitX=1;exitY=0.75;exitDx=0;exitDy=0;endFill=1;" parent="1" source="5d2195bd80daf111-12" target="QEIDY006NLrW6bMYApJ5-1" edge="1">
                    <mxGeometry width="50" height="50" relative="1" as="geometry">
                        <mxPoint x="610" y="-400" as="sourcePoint"/>
                        <mxPoint x="860" y="-350" as="targetPoint"/>
                        <Array as="points">
                            <mxPoint x="790" y="-455"/>
                            <mxPoint x="790" y="-310"/>
                            <mxPoint x="790" y="-240"/>
                        </Array>
                    </mxGeometry>
                </mxCell>
                <mxCell id="z-6WkL9V1n6z_OoucZy9-15" style="edgeStyle=orthogonalEdgeStyle;rounded=0;orthogonalLoop=1;jettySize=auto;html=1;entryX=1;entryY=0.5;entryDx=0;entryDy=0;startArrow=block;startFill=0;endArrow=none;endFill=0;" parent="1" source="z-6WkL9V1n6z_OoucZy9-12" target="5d2195bd80daf111-20" edge="1">
                    <mxGeometry relative="1" as="geometry"/>
                </mxCell>
                <mxCell id="z-6WkL9V1n6z_OoucZy9-12" value="&lt;p style=&quot;margin: 0px ; margin-top: 4px ; text-align: center&quot;&gt;&lt;i&gt;&amp;lt;&amp;lt;Vehicle&amp;gt;&amp;gt;&lt;/i&gt;&lt;/p&gt;&lt;hr size=&quot;1&quot;&gt;&lt;p style=&quot;margin: 0px ; margin-left: 4px&quot;&gt;+ type:&lt;br&gt;+ name&lt;/p&gt;&lt;hr size=&quot;1&quot;&gt;&lt;p style=&quot;margin: 0px ; margin-left: 4px&quot;&gt;+ method1(Type): Type&lt;br&gt;+ method2(Type, Type): Type&lt;/p&gt;" style="verticalAlign=top;align=left;overflow=fill;fontSize=12;fontFamily=Helvetica;html=1;rounded=0;shadow=0;comic=0;labelBackgroundColor=none;strokeWidth=1" parent="1" vertex="1">
                    <mxGeometry x="1400" y="-1010" width="190" height="140" as="geometry"/>
                </mxCell>
                <mxCell id="z-6WkL9V1n6z_OoucZy9-17" style="edgeStyle=orthogonalEdgeStyle;rounded=0;orthogonalLoop=1;jettySize=auto;html=1;exitX=0.5;exitY=0;exitDx=0;exitDy=0;entryX=0.147;entryY=1.021;entryDx=0;entryDy=0;entryPerimeter=0;startArrow=none;startFill=0;endArrow=block;endFill=0;" parent="1" source="z-6WkL9V1n6z_OoucZy9-16" target="5d2195bd80daf111-12" edge="1">
                    <mxGeometry relative="1" as="geometry"/>
                </mxCell>
                <mxCell id="z-6WkL9V1n6z_OoucZy9-16" value="&lt;p style=&quot;margin: 0px ; margin-top: 4px ; text-align: center&quot;&gt;&lt;i&gt;clientManager&lt;/i&gt;&lt;/p&gt;&lt;hr size=&quot;1&quot;&gt;&lt;p style=&quot;margin: 0px ; margin-left: 4px&quot;&gt;+ field1: Type&lt;br&gt;+ field2: Type&lt;/p&gt;&lt;hr size=&quot;1&quot;&gt;&lt;p style=&quot;margin: 0px ; margin-left: 4px&quot;&gt;+ save_client&lt;br&gt;+ delete_client&lt;/p&gt;&lt;p style=&quot;margin: 0px ; margin-left: 4px&quot;&gt;+ update_client&lt;/p&gt;" style="verticalAlign=top;align=left;overflow=fill;fontSize=12;fontFamily=Helvetica;html=1;rounded=0;shadow=0;comic=0;labelBackgroundColor=none;strokeWidth=1" parent="1" vertex="1">
                    <mxGeometry x="40" y="-355" width="190" height="150" as="geometry"/>
                </mxCell>
                <mxCell id="z-6WkL9V1n6z_OoucZy9-19" style="edgeStyle=orthogonalEdgeStyle;rounded=0;orthogonalLoop=1;jettySize=auto;html=1;exitX=0.5;exitY=0;exitDx=0;exitDy=0;entryX=0.306;entryY=1.01;entryDx=0;entryDy=0;entryPerimeter=0;startArrow=none;startFill=0;endArrow=block;endFill=0;" parent="1" source="z-6WkL9V1n6z_OoucZy9-18" target="5d2195bd80daf111-12" edge="1">
                    <mxGeometry relative="1" as="geometry"/>
                </mxCell>
                <mxCell id="z-6WkL9V1n6z_OoucZy9-18" value="&lt;p style=&quot;margin: 0px ; margin-top: 4px ; text-align: center&quot;&gt;&lt;i&gt;driverManager&lt;/i&gt;&lt;/p&gt;&lt;hr size=&quot;1&quot;&gt;&lt;p style=&quot;margin: 0px ; margin-left: 4px&quot;&gt;+ field1: Type&lt;br&gt;+ field2: Type&lt;/p&gt;&lt;hr size=&quot;1&quot;&gt;&lt;p style=&quot;margin: 0px ; margin-left: 4px&quot;&gt;+ save_client&lt;br&gt;+ delete_client&lt;/p&gt;&lt;p style=&quot;margin: 0px ; margin-left: 4px&quot;&gt;+ update_client&lt;/p&gt;" style="verticalAlign=top;align=left;overflow=fill;fontSize=12;fontFamily=Helvetica;html=1;rounded=0;shadow=0;comic=0;labelBackgroundColor=none;strokeWidth=1" parent="1" vertex="1">
                    <mxGeometry x="270" y="-300" width="190" height="150" as="geometry"/>
                </mxCell>
            </root>
        </mxGraphModel>
    </diagram>
</mxfile>